/* XPM */
static const char *charge[] = {
/* columns rows colors chars-per-pixel */
"20 20 256 2",
"   c #0000C6",
".  c #0000CE",
"X  c #0000D6",
"o  c #0000DE",
"O  c #0000E7",
"+  c #0000EF",
"@  c #0000F7",
"#  c #1010C6",
"$  c #1010D6",
"%  c #1010E7",
"&  c #1010F7",
"*  c #2121C6",
"=  c #2121D6",
"-  c #2121E7",
";  c #2929F7",
":  c #3131CE",
">  c #3131DE",
",  c #3939EF",
"<  c #3939F7",
"1  c #4242D6",
"2  c #4A4AE7",
"3  c #4A4AEF",
"4  c #5252F7",
"5  c #5A5ADE",
"6  c #5A5AE7",
"7  c #5A5AEF",
"8  c #630000",
"9  c #6363F7",
"0  c #6B0000",
"q  c #6B6BDE",
"w  c #730000",
"e  c #73737B",
"r  c #737384",
"t  c #7373EF",
"y  c #7B0000",
"u  c #7B7B7B",
"i  c #7B7B8C",
"p  c #7B7B94",
"a  c #7B7BB5",
"s  c #7B7BDE",
"d  c #7B7BE7",
"f  c #7B7BF7",
"g  c #7B7BFF",
"h  c #840000",
"j  c #844242",
"k  c #845252",
"l  c #84848C",
"z  c #848494",
"x  c #84849C",
"c  c #8484B5",
"v  c #8484CE",
"b  c #8484DE",
"n  c #8484E7",
"m  c #8484EF",
"M  c #8C0000",
"N  c #8C3939",
"B  c #8C4A4A",
"V  c #8C5A5A",
"C  c #8C6363",
"Z  c #8C8C8C",
"A  c #8C8C94",
"S  c #8C8C9C",
"D  c #8C8CA5",
"F  c #8C8CAD",
"G  c #8C8CBD",
"H  c #8C8CCE",
"J  c #8C8CE7",
"K  c #8C8CEF",
"L  c #8C8CF7",
"P  c #8C8CFF",
"I  c #940000",
"U  c #941010",
"Y  c #942929",
"T  c #945A5A",
"R  c #946363",
"E  c #947373",
"W  c #949494",
"Q  c #9494A5",
"!  c #9494AD",
"~  c #9494B5",
"^  c #9494C6",
"/  c #9494CE",
"(  c #9494DE",
")  c #9494E7",
"_  c #9494EF",
"`  c #9494F7",
"'  c #9494FF",
"]  c #9C0000",
"[  c #9C1010",
"{  c #9C5252",
"}  c #9C6B6B",
"|  c #9C7373",
" . c #9C7B7B",
".. c #9C9494",
"X. c #9C9C9C",
"o. c #9C9CA5",
"O. c #9C9CAD",
"+. c #9C9CB5",
"@. c #9C9CBD",
"#. c #9C9CC6",
"$. c #9C9CCE",
"%. c #9C9CD6",
"&. c #9C9CDE",
"*. c #9C9CE7",
"=. c #9C9CEF",
"-. c #9C9CF7",
";. c #A50000",
":. c #A51010",
">. c #A53131",
",. c #A54A4A",
"<. c #A55A5A",
"1. c #A56363",
"2. c #A56B6B",
"3. c #A57373",
"4. c #A57B7B",
"5. c #A58C8C",
"6. c #A59494",
"7. c #A5A5A5",
"8. c #A5A5AD",
"9. c #A5A5B5",
"0. c #A5A5BD",
"q. c #A5A5C6",
"w. c #A5A5D6",
"e. c #A5A5DE",
"r. c #A5A5E7",
"t. c #A5A5EF",
"y. c #AD1010",
"u. c #AD3131",
"i. c #AD4A4A",
"p. c #AD5252",
"a. c #AD5A5A",
"s. c #AD6363",
"d. c #AD6B6B",
"f. c #AD7373",
"g. c #AD7B7B",
"h. c #AD8484",
"j. c #AD8C8C",
"k. c #AD9494",
"l. c #AD9C9C",
"z. c #ADA5A5",
"x. c #ADADB5",
"c. c #ADADBD",
"v. c #ADADCE",
"b. c #ADADD6",
"n. c #B54A4A",
"m. c #B55A5A",
"M. c #B56363",
"N. c #B56B6B",
"B. c #B57373",
"V. c #B58484",
"C. c #B58C8C",
"Z. c #B59494",
"A. c #B59C9C",
"S. c #B5A5A5",
"D. c #B5ADAD",
"F. c #B5B5B5",
"G. c #B5B5CE",
"H. c #B5B5DE",
"J. c #BD6B6B",
"K. c #BD7373",
"L. c #BD7B7B",
"P. c #BD8484",
"I. c #BD8C8C",
"U. c #BD9494",
"Y. c #BD9C9C",
"T. c #BDA5A5",
"R. c #BDADAD",
"E. c #BDB5B5",
"W. c #BDBDBD",
"Q. c #BDBDC6",
"!. c #BDBDCE",
"~. c #C67373",
"^. c #C67B7B",
"/. c #C68C8C",
"(. c #C69494",
"). c #C69C9C",
"_. c #C6ADAD",
"`. c #C6B5B5",
"'. c #C6BDBD",
"]. c #C6C6C6",
"[. c #C6C6DE",
"{. c #C6C6E7",
"}. c #CE7B7B",
"|. c #CE8484",
" X c #CE9494",
".X c #CE9C9C",
"XX c #CEA5A5",
"oX c #CEADAD",
"OX c #CEB5B5",
"+X c #CEBDBD",
"@X c #CEC6C6",
"#X c #CECECE",
"$X c #CECED6",
"%X c #CECEDE",
"&X c #CECEE7",
"*X c #D67B7B",
"=X c #D68C8C",
"-X c #D69494",
";X c #D6A5A5",
":X c #D6BDBD",
">X c #D6C6C6",
",X c #D6D6E7",
"<X c #D6D6EF",
"1X c #DE9C9C",
"2X c #DECECE",
"3X c #DEDEDE",
"4X c #DEDEE7",
"5X c #DEDEEF",
"6X c #E7E7E7",
"7X c #FFFFFF",
"8X c #FFFFFF",
"9X c #FFFFFF",
"0X c #FFFFFF",
"qX c #FFFFFF",
"wX c #FFFFFF",
"eX c #FFFFFF",
"rX c #FFFFFF",
"tX c #FFFFFF",
"yX c #FFFFFF",
"uX c #FFFFFF",
"iX c #FFFFFF",
"pX c #FFFFFF",
"aX c #FFFFFF",
"sX c #FFFFFF",
"dX c #FFFFFF",
"fX c #FFFFFF",
"gX c #FFFFFF",
"hX c #FFFFFF",
"jX c #FFFFFF",
"kX c #FFFFFF",
"lX c #FFFFFF",
"zX c #FFFFFF",
"xX c #FFFFFF",
"cX c #FFFFFF",
"vX c #FFFFFF",
"bX c #FFFFFF",
"nX c #FFFFFF",
"mX c #FFFFFF",
"MX c #FFFFFF",
"NX c #FFFFFF",
"BX c #FFFFFF",
"VX c #FFFFFF",
"CX c #FFFFFF",
"ZX c #FFFFFF",
"AX c #FFFFFF",
"SX c #FFFFFF",
"DX c #FFFFFF",
"FX c #FFFFFF",
"GX c #FFFFFF",
"HX c #FFFFFF",
"JX c #FFFFFF",
"KX c #FFFFFF",
"LX c #FFFFFF",
"PX c #FFFFFF",
"IX c #FFFFFF",
"UX c #FFFFFF",
/* pixels */
"4X,X{.H.#.a a v b s q 5 1 : * #     X X ",
"6X4X,X[.b.^ G H ( J m t 6 2 > = $ X o O ",
"2X6X,X,X[.q.^ ^ ( =.K L d 9 2 , - % O O ",
"OX2X3X,X[.G.q.^ %.r.-.` L f 9 4 , ; % @ ",
"Z.`.>X3X#XG.0.+.^ e.t.-.` L f 9 4 , ; & ",
"h.A.R.`.#XQ.c.+.~ #.&.t.=.` L f 9 4 , ; ",
"h.C.T.T.'.].W.9.! ! #.&.t.=.L K f 7 4 , ",
"/.).)._._.`.].x.O.D ! #.&.t.=.K n d 6 2 ",
"|. X;XXXoX`.`.W.8.Q S ~ $.e.*.) J n q 5 ",
"}.=X1XXXXX_._.D.E.8.o.D ~ $.&.*.) b s q ",
"J.^.|. X(.).Y.R.R.x.8.A S ! $.%.*.( b s ",
"a.J.~.P./.U.U.T.T.R.F.Q l z F $.e.*.) b ",
",.m.N.~.^.I.I.U.T.T.S.7.l r i ~ $.&.&.( ",
">.i.m.J.K.L.V.I.Z.Y.l.z.W l e l ~ #.&.*.",
"U >.i.s.M.K.B.V.C.Z.Z.l...W u e i F $.e.",
"M [ u.p.m.s.N.f.g.h.j.k.5...l u e i ! %.",
"y I :.u.p.a.a.d.2.g.h.h.5.5.W W l i z @.",
"w I ;.y.u.,.a.<.1.} 3. . .5.6.z.F.X.z x ",
"0 h ] ] :.>.,.{ { T R } E  .k.R.+X].8.z ",
"8 y M I ] [ Y j j k k V C E j.XX+X2X].o."
};
