/* XPM */
static const char *cpk[] = {
/* columns rows colors chars-per-pixel */
"20 20 256 2",
"   c black",
".  c #000033",
"X  c #000066",
"o  c #000099",
"O  c #0000CC",
"+  c blue",
"@  c #330000",
"#  c #330033",
"$  c #330066",
"%  c #330099",
"&  c #3300CC",
"*  c #3300FF",
"=  c #660000",
"-  c #660033",
";  c #660066",
":  c #660099",
">  c #6600CC",
",  c #6600FF",
"<  c #990000",
"1  c #990033",
"2  c #990066",
"3  c #990099",
"4  c #9900CC",
"5  c #9900FF",
"6  c #CC0000",
"7  c #CC0033",
"8  c #CC0066",
"9  c #CC0099",
"0  c #CC00CC",
"q  c #CC00FF",
"w  c red",
"e  c #FF0033",
"r  c #FF0066",
"t  c #FF0099",
"y  c #FF00CC",
"u  c magenta",
"i  c #003300",
"p  c #003333",
"a  c #003366",
"s  c #003399",
"d  c #0033CC",
"f  c #0033FF",
"g  c #333300",
"h  c gray20",
"j  c #333366",
"k  c #333399",
"l  c #3333CC",
"z  c #3333FF",
"x  c #663300",
"c  c #663333",
"v  c #663366",
"b  c #663399",
"n  c #6633CC",
"m  c #6633FF",
"M  c #993300",
"N  c #993333",
"B  c #993366",
"V  c #993399",
"C  c #9933CC",
"Z  c #9933FF",
"A  c #CC3300",
"S  c #CC3333",
"D  c #CC3366",
"F  c #CC3399",
"G  c #CC33CC",
"H  c #CC33FF",
"J  c #FF3300",
"K  c #FF3333",
"L  c #FF3366",
"P  c #FF3399",
"I  c #FF33CC",
"U  c #FF33FF",
"Y  c #006600",
"T  c #006633",
"R  c #006666",
"E  c #006699",
"W  c #0066CC",
"Q  c #0066FF",
"!  c #336600",
"~  c #336633",
"^  c #336666",
"/  c #336699",
"(  c #3366CC",
")  c #3366FF",
"_  c #666600",
"`  c #666633",
"'  c gray40",
"]  c #666699",
"[  c #6666CC",
"{  c #6666FF",
"}  c #996600",
"|  c #996633",
" . c #996666",
".. c #996699",
"X. c #9966CC",
"o. c #9966FF",
"O. c #CC6600",
"+. c #CC6633",
"@. c #CC6666",
"#. c #CC6699",
"$. c #CC66CC",
"%. c #CC66FF",
"&. c #FF6600",
"*. c #FF6633",
"=. c #FF6666",
"-. c #FF6699",
";. c #FF66CC",
":. c #FF66FF",
">. c #009900",
",. c #009933",
"<. c #009966",
"1. c #009999",
"2. c #0099CC",
"3. c #0099FF",
"4. c #339900",
"5. c #339933",
"6. c #339966",
"7. c #339999",
"8. c #3399CC",
"9. c #3399FF",
"0. c #669900",
"q. c #669933",
"w. c #669966",
"e. c #669999",
"r. c #6699CC",
"t. c #6699FF",
"y. c #999900",
"u. c #999933",
"i. c #999966",
"p. c gray60",
"a. c #9999CC",
"s. c #9999FF",
"d. c #CC9900",
"f. c #CC9933",
"g. c #CC9966",
"h. c #CC9999",
"j. c #CC99CC",
"k. c #CC99FF",
"l. c #FF9900",
"z. c #FF9933",
"x. c #FF9966",
"c. c #FF9999",
"v. c #FF99CC",
"b. c #FF99FF",
"n. c #00CC00",
"m. c #00CC33",
"M. c #00CC66",
"N. c #00CC99",
"B. c #00CCCC",
"V. c #00CCFF",
"C. c #33CC00",
"Z. c #33CC33",
"A. c #33CC66",
"S. c #33CC99",
"D. c #33CCCC",
"F. c #33CCFF",
"G. c #66CC00",
"H. c #66CC33",
"J. c #66CC66",
"K. c #66CC99",
"L. c #66CCCC",
"P. c #66CCFF",
"I. c #99CC00",
"U. c #99CC33",
"Y. c #99CC66",
"T. c #99CC99",
"R. c #99CCCC",
"E. c #99CCFF",
"W. c #CCCC00",
"Q. c #CCCC33",
"!. c #CCCC66",
"~. c #CCCC99",
"^. c gray80",
"/. c #CCCCFF",
"(. c #FFCC00",
"). c #FFCC33",
"_. c #FFCC66",
"`. c #FFCC99",
"'. c #FFCCCC",
"]. c #FFCCFF",
"[. c green",
"{. c #00FF33",
"}. c #00FF66",
"|. c #00FF99",
" X c #00FFCC",
".X c cyan",
"XX c #33FF00",
"oX c #33FF33",
"OX c #33FF66",
"+X c #33FF99",
"@X c #33FFCC",
"#X c #33FFFF",
"$X c #66FF00",
"%X c #66FF33",
"&X c #66FF66",
"*X c #66FF99",
"=X c #66FFCC",
"-X c #66FFFF",
";X c #99FF00",
":X c #99FF33",
">X c #99FF66",
",X c #99FF99",
"<X c #99FFCC",
"1X c #99FFFF",
"2X c #CCFF00",
"3X c #CCFF33",
"4X c #CCFF66",
"5X c #CCFF99",
"6X c #CCFFCC",
"7X c #CCFFFF",
"8X c yellow",
"9X c #FFFF33",
"0X c #FFFF66",
"qX c #FFFF99",
"wX c #FFFFCC",
"eX c gray100",
"rX c black",
"tX c black",
"yX c black",
"uX c black",
"iX c black",
"pX c black",
"aX c black",
"sX c black",
"dX c black",
"fX c black",
"gX c black",
"hX c black",
"jX c black",
"kX c black",
"lX c black",
"zX c black",
"xX c black",
"cX c black",
"vX c black",
"bX c black",
"nX c black",
"mX c black",
"MX c black",
"NX c black",
"BX c black",
"VX c black",
"CX c black",
"ZX c black",
"AX c black",
"SX c black",
"DX c black",
"FX c black",
"GX c black",
"HX c black",
"JX c black",
"KX c black",
"LX c black",
"PX c black",
"IX c black",
"UX c black",
/* pixels */
"^.^.^.^.^.^.^.^.^.^.w w w w w w w w w w ",
"^.^.^.^.^.^.^.^.^.^.w w w w w w w w w w ",
"^.^.^.^.^.^.^.^.^.^.w w w w w w w w w w ",
"^.^.^.^.^.^.^.^.^.^.w w w w w w w w w w ",
"^.^.^.^.^.^.^.^.^.^.w w w w w w w w w w ",
"^.^.^.^.^.^.^.^.^.^.w w w w w w w w w w ",
"^.^.^.^.^.^.^.^.^.^.w w w w w w w w w w ",
"^.^.^.^.^.^.^.^.^.^.w w w w w w w w w w ",
"^.^.^.^.^.^.^.^.^.^.w w w w w w w w w w ",
"^.^.^.^.^.^.^.^.^.^.w w w w w w w w w w ",
"+ + + + + + + + + + eXeXeXeXeXeXeXeXeXeX",
"+ + + + + + + + + + eXeXeXeXeXeXeXeXeXeX",
"+ + + + + + + + + + eXeXeXeXeXeXeXeXeXeX",
"+ + + + + + + + + + eXeXeXeXeXeXeXeXeXeX",
"+ + + + + + + + + + eXeXeXeXeXeXeXeXeXeX",
"+ + + + + + + + + + eXeXeXeXeXeXeXeXeXeX",
"+ + + + + + + + + + eXeXeXeXeXeXeXeXeXeX",
"+ + + + + + + + + + eXeXeXeXeXeXeXeXeXeX",
"+ + + + + + + + + + eXeXeXeXeXeXeXeXeXeX",
"+ + + + + + + + + + eXeXeXeXeXeXeXeXeXeX"
};
